<svg width="14" height="14" viewBox="0 0 14 14" fill="none" xmlns="http://www.w3.org/2000/svg">
<path d="M6.57784 0.561512C6.76629 0.23796 7.23371 0.237959 7.42216 0.561511L9.41868 3.98932C9.48772 4.10785 9.60339 4.19189 9.73745 4.22092L13.6144 5.06047C13.9804 5.13972 14.1248 5.58426 13.8754 5.86347L11.2323 8.82153C11.1409 8.92381 11.0967 9.05979 11.1105 9.19626L11.5101 13.1429C11.5478 13.5155 11.1697 13.7902 10.827 13.6392L7.19701 12.0396C7.07149 11.9843 6.92851 11.9843 6.80299 12.0396L3.17296 13.6392C2.83032 13.7902 2.45216 13.5155 2.48988 13.1429L2.88948 9.19626C2.9033 9.05979 2.85911 8.92381 2.76772 8.82153L0.12464 5.86347C-0.124841 5.58426 0.0196004 5.13972 0.385551 5.06047L4.26255 4.22092C4.39661 4.19189 4.51228 4.10785 4.58132 3.98932L6.57784 0.561512Z" fill="currentColor"/>
</svg>
