<svg width="12" height="11" viewBox="0 0 12 11" fill="none" xmlns="http://www.w3.org/2000/svg">
<path d="M12 9.69231C12 9.81472 11.9514 9.93211 11.8648 10.0187C11.7783 10.1052 11.6609 10.1538 11.5385 10.1538H0.461538C0.339131 10.1538 0.221737 10.1052 0.135181 10.0187C0.0486262 9.93211 0 9.81472 0 9.69231V0.461538C0 0.339131 0.0486262 0.221737 0.135181 0.135182C0.221737 0.0486263 0.339131 0 0.461538 0C0.583946 0 0.70134 0.0486263 0.787895 0.135182C0.874451 0.221737 0.923077 0.339131 0.923077 0.461538V6.73269L3.825 3.825C3.9125 3.73833 4.03069 3.68971 4.15385 3.68971C4.27701 3.68971 4.39519 3.73833 4.48269 3.825L6 5.34808L8.80962 2.53846L7.97885 1.71346C7.91623 1.64673 7.8738 1.56363 7.85644 1.47379C7.83908 1.38394 7.84752 1.29102 7.88077 1.20577C7.9167 1.12221 7.97623 1.05096 8.05207 1.00075C8.1279 0.950532 8.21674 0.923539 8.30769 0.923077H10.6154C10.7378 0.923077 10.8552 0.971703 10.9417 1.05826C11.0283 1.14481 11.0769 1.26221 11.0769 1.38462V3.69231C11.0772 3.78343 11.0505 3.87259 11.0002 3.94857C10.9499 4.02454 10.8782 4.08392 10.7942 4.11923C10.7373 4.14184 10.6766 4.15358 10.6154 4.15385C10.4928 4.15333 10.3751 4.10584 10.2865 4.02115L9.46154 3.19039L6.32885 6.32885C6.24134 6.41551 6.12316 6.46414 6 6.46414C5.87684 6.46414 5.75866 6.41551 5.67115 6.32885L4.15385 4.80577L0.923077 8.03654V9.23077H11.5385C11.6609 9.23077 11.7783 9.2794 11.8648 9.36595C11.9514 9.45251 12 9.5699 12 9.69231Z" fill="#AEB9E1"/>
</svg>
