<svg width="14" height="14" viewBox="0 0 14 14" fill="none" xmlns="http://www.w3.org/2000/svg">
<path d="M7.00342 0C7.51768 0 7.93506 0.417374 7.93506 0.931641V1.40234C8.3633 1.40254 8.78745 1.48652 9.18311 1.65039C9.57925 1.81448 9.93948 2.0552 10.2427 2.3584C10.5458 2.66157 10.7856 3.02188 10.9497 3.41797C11.1138 3.814 11.1987 4.23833 11.1987 4.66699C11.1987 5.18126 10.7814 5.59863 10.2671 5.59863C9.75303 5.59839 9.33643 5.18111 9.33643 4.66699C9.33638 4.48305 9.30032 4.30082 9.22998 4.13086C9.1595 3.9607 9.05552 3.80603 8.92529 3.67578C8.79503 3.54552 8.64041 3.44159 8.47021 3.37109C8.30009 3.30066 8.11724 3.26465 7.93311 3.26465H5.83252C5.46065 3.26478 5.10427 3.41282 4.84131 3.67578C4.57835 3.93877 4.43027 4.2951 4.43018 4.66699C4.43018 5.03904 4.57823 5.3961 4.84131 5.65918C5.10427 5.9221 5.46068 6.07019 5.83252 6.07031H8.3999C9.26587 6.07031 10.0971 6.41404 10.7095 7.02637C11.3217 7.63861 11.6654 8.46916 11.6655 9.33496C11.6655 10.2009 11.3218 11.0322 10.7095 11.6445C10.0971 12.2568 9.26583 12.6006 8.3999 12.6006H7.93506V13.0684C7.93506 13.5826 7.51768 14 7.00342 14C6.48922 13.9999 6.07275 13.5826 6.07275 13.0684V12.6006H5.59912C4.73337 12.6005 3.90274 12.2567 3.29053 11.6445C2.6782 11.0322 2.33447 10.2009 2.33447 9.33496C2.33464 8.82084 2.75195 8.4043 3.26611 8.4043C3.78005 8.40456 4.19661 8.821 4.19678 9.33496C4.19678 9.70701 4.34483 10.0641 4.60791 10.3271C4.87087 10.5901 5.22729 10.7382 5.59912 10.7383H6.98486C6.99104 10.7382 6.99721 10.7373 7.00342 10.7373C7.0099 10.7373 7.0165 10.7381 7.02295 10.7383H8.3999C8.77192 10.7383 9.12902 10.5902 9.39209 10.3271C9.65517 10.0641 9.80322 9.70701 9.80322 9.33496C9.80314 8.96307 9.65503 8.60674 9.39209 8.34375C9.12901 8.08067 8.77195 7.93262 8.3999 7.93262H5.83252C4.96676 7.93249 4.13614 7.58873 3.52393 6.97656C2.9116 6.36423 2.56787 5.53296 2.56787 4.66699C2.56796 3.80118 2.91172 2.97064 3.52393 2.3584C4.13614 1.74618 4.96673 1.40247 5.83252 1.40234H6.07275V0.931641C6.07275 0.417425 6.48922 8.34797e-05 7.00342 0Z" fill="#AEB9E1"/>
</svg>
