<svg width="14" height="14" viewBox="0 0 14 14" fill="none" xmlns="http://www.w3.org/2000/svg">
<path d="M8.73956 0C9.0157 3.14578e-10 9.23956 0.223858 9.23956 0.5V3.11523L11.5062 1.80664C11.7451 1.66864 12.0506 1.75048 12.1888 1.98926L13.931 5.00781C14.069 5.24689 13.9873 5.55227 13.7483 5.69043L11.4808 6.99902L13.7483 8.30859C13.9874 8.44667 14.0689 8.75207 13.931 8.99121L12.1898 12.0098C12.0517 12.2489 11.7453 12.3305 11.5062 12.1924L9.23956 10.8828V13.5C9.23956 13.7761 9.0157 14 8.73956 14H5.25518C4.97924 13.9998 4.75518 13.776 4.75518 13.5V10.8828L2.49249 12.1904C2.25341 12.3285 1.94796 12.2468 1.80987 12.0078L0.0676822 8.98926C-0.0702142 8.75015 0.0112845 8.44472 0.250299 8.30664L2.51299 6.99902L0.250299 5.69238C0.0114299 5.5542 -0.0703013 5.24881 0.0676822 5.00977L1.80987 1.99121C1.94802 1.75241 2.25351 1.67065 2.49249 1.80859L4.75518 3.11523V0.5C4.75518 0.224005 4.97924 0.000238222 5.25518 0H8.73956ZM6.99932 5.12695C5.96522 5.12695 5.12628 5.96568 5.12628 7C5.12641 8.03421 5.9653 8.87305 6.99932 8.87305C8.03326 8.87294 8.87126 8.03414 8.87139 7C8.87139 5.96574 8.03334 5.12706 6.99932 5.12695Z" fill="#AEB9E1"/>
</svg>
