<svg width="11" height="12" viewBox="0 0 11 12" fill="none" xmlns="http://www.w3.org/2000/svg">
<path d="M3.85704 0.857149H6.42849C6.54215 0.857149 6.65116 0.811996 6.73154 0.731622C6.81191 0.651249 6.85706 0.542239 6.85706 0.428574C6.85706 0.314909 6.81191 0.2059 6.73154 0.125527C6.65116 0.0451533 6.54215 0 6.42849 0L3.85704 0C3.74338 0 3.63437 0.0451533 3.55399 0.125527C3.47362 0.2059 3.42847 0.314909 3.42847 0.428574C3.42847 0.542239 3.47362 0.651249 3.55399 0.731622C3.63437 0.811996 3.74338 0.857149 3.85704 0.857149Z" fill="#AEB9E1"/>
<path d="M5.1429 1.71411C4.12573 1.71411 3.1314 2.01574 2.28566 2.58084C1.43991 3.14595 0.780735 3.94916 0.391482 4.8889C0.00222834 5.82864 -0.0996181 6.86271 0.0988216 7.86033C0.297261 8.85796 0.787074 9.77433 1.50632 10.4936C2.22557 11.2128 3.14194 11.7026 4.13957 11.9011C5.13719 12.0995 6.17125 11.9977 7.11099 11.6084C8.05074 11.2192 8.85395 10.56 9.41905 9.71424C9.98416 8.8685 10.2858 7.87417 10.2858 6.857C10.283 5.49389 9.74021 4.18742 8.77634 3.22356C7.81248 2.25969 6.50601 1.71694 5.1429 1.71411ZM7.5697 5.04092L5.44825 7.16236C5.36634 7.24157 5.25684 7.28585 5.1429 7.28585C5.02894 7.28585 4.91945 7.24157 4.83754 7.16236C4.75706 7.08111 4.71191 6.97137 4.71191 6.857C4.71191 6.74264 4.75706 6.6329 4.83754 6.55164L6.95898 4.4302C6.99741 4.38338 7.04521 4.34512 7.09931 4.31789C7.15342 4.29066 7.21262 4.27506 7.27312 4.27208C7.33362 4.26911 7.39407 4.27884 7.45058 4.30064C7.50709 4.32244 7.55841 4.35583 7.60124 4.39866C7.64407 4.44149 7.67746 4.49281 7.69926 4.54932C7.72106 4.60583 7.73079 4.66628 7.72781 4.72678C7.72484 4.78728 7.70924 4.84648 7.68201 4.90059C7.65478 4.95469 7.61652 5.00249 7.5697 5.04092Z" fill="#AEB9E1"/>
</svg>
