<svg width="14" height="14" viewBox="0 0 14 14" fill="none" xmlns="http://www.w3.org/2000/svg">
<path d="M6.99995 2.43604C11.1556 2.43605 13.2682 5.50135 13.8955 6.60791C14.0347 6.85385 14.0347 7.14614 13.8955 7.39209C13.2682 8.49865 11.1556 11.564 6.99995 11.564C2.84424 11.564 0.731668 8.49866 0.104439 7.39209C-0.0347954 7.14612 -0.0348308 6.85387 0.104439 6.60791C0.731668 5.50134 2.84424 2.43604 6.99995 2.43604ZM7.00092 4.46533C5.60071 4.4655 4.46577 5.60023 4.46577 7.00049C4.4658 8.40071 5.60073 9.53548 7.00092 9.53564C8.40126 9.53564 9.53702 8.40082 9.53706 7.00049C9.53706 5.60013 8.40128 4.46533 7.00092 4.46533Z" fill="#AEB9E1"/>
</svg>
