<svg width="14" height="14" viewBox="0 0 14 14" fill="none" xmlns="http://www.w3.org/2000/svg">
<path d="M10.2989 4.9887C10.2989 4.9887 9.17241 8.52893 9.09196 8.85077C9.09196 8.52893 8.2069 2.17261 8.2069 2.17261C6.27586 2.17261 5.22989 3.54042 4.74713 4.9887C4.74713 4.9887 3.43604 7.74623 3.35558 8.06807C3.27512 7.82669 3.05747 5.06916 3.05747 5.06916C2.89655 3.29904 1.28736 2.17261 0 2.17261L1.6092 11.8278C3.62069 11.8278 4.74713 10.46 5.31034 9.01169C5.31034 9.01169 6.51724 5.87376 6.5977 5.71284C6.5977 5.87376 7.48276 11.8278 7.48276 11.8278C9.49425 11.8278 10.6207 10.5404 11.1839 9.17261L14 2.17261C11.908 2.17261 10.8621 3.54042 10.2989 4.9887Z" fill="#AEB9E1"/>
</svg>
